<svg xmlns="http://www.w3.org/2000/svg" width="977" height="235" fill="none" viewBox="0 0 977 235"><path fill="#3B5EDA" d="M899.6 196.2a38.6 38.6 0 1 1 77.3-.1 38.6 38.6 0 0 1-77.3 0"/><path fill="#091D42" d="M153 149.2v84.6H82v-84.6L0 0h81.5l37.3 71.5c12.4-23.1 24.9-49 36.6-71.5h78zm222.5 84.6-66.7-109.1v109.1h-67.3V0h60.8l66.6 107.4V0h67v233.8zm229.7-41.4h-68.8l-13.8 41.4h-76L532.3 0h81.9l83.5 233.8h-79zM571 85.4l-18 53.4h36zm232.4 148.4h-95.3V0h90.5c53.5 0 84.6 22.8 84.6 64.2 0 20.8-10.7 37.7-28.3 50.5a61 61 0 0 1 29.7 52.1c0 43.2-30.4 67-81.2 67m-10-179.2h-17.2v38h18.3c9 0 16.9-7.3 16.9-20 0-10-6.6-18-18-18m-1.4 86h-15.8v39H791c14.9 0 22.8-7.3 22.8-19 0-12.4-6.2-20-21.8-20"/></svg>