<svg xmlns="http://www.w3.org/2000/svg" fill="none" viewBox="0 0 135 33">
  <path fill="#3B5EDA" d="M124.3 27.1a5.3 5.3 0 1 1 10.7 0 5.3 5.3 0 0 1-10.7 0Z"/>
  <path fill="#FEF9ED" d="M21.1 20.6v11.7h-9.8V20.6L0 0h11.3l5.1 9.9 5-9.9h10.9L21 20.6ZM51.9 32.3l-9.2-15v15h-9.3V0h8.4L51 14.8V0h9.2v32.3H52ZM83.6 26.6h-9.5l-1.9 5.7H61.7L73.6 0h11.3l11.5 32.3h-11l-1.8-5.7ZM79 11.8l-2.5 7.4h5l-2.5-7.4ZM111 32.3H97.8V0h12.5c7.4 0 11.7 3.1 11.7 8.9 0 2.8-1.4 5.2-3.9 7a8.4 8.4 0 0 1 4.1 7.2c0 6-4.2 9.2-11.2 9.2Zm-1.4-24.8h-2.4v5.3h2.6c1.2 0 2.3-1 2.3-2.8 0-1.4-.9-2.5-2.5-2.5Zm-.2 12h-2.2v5.3h2.1c2 0 3.2-1 3.2-2.6 0-1.7-1-2.8-3-2.8Z"/>
</svg>
