<?xml version="1.0" encoding="UTF-8" standalone="no"?>
<!DOCTYPE svg PUBLIC "-//W3C//DTD SVG 1.1//EN" "http://www.w3.org/Graphics/SVG/1.1/DTD/svg11.dtd">
<svg width="100%" height="100%" viewBox="0 0 194 192" version="1.1" xmlns="http://www.w3.org/2000/svg" xmlns:xlink="http://www.w3.org/1999/xlink" xml:space="preserve" xmlns:serif="http://www.serif.com/" style="fill-rule:evenodd;clip-rule:evenodd;stroke-linejoin:round;stroke-miterlimit:2;">
    <path d="M156.3,87.7L121,87.7C120.2,87.7 119.3,88.2 119,88.9L97.8,123.3C97.4,123.9 96.8,123.9 96.4,123.3L75.4,88.9C74.923,88.247 74.201,87.814 73.4,87.7L37.9,87.7C37.2,87.7 36.9,88.2 37.3,88.8L79.1,150.3C79.5,150.9 79.9,152 79.9,152.8L79.9,189.7C79.948,190.394 80.506,190.952 81.2,191L113,191C113.732,191.002 114.348,190.43 114.4,189.7L114.4,152.7C114.4,152 114.7,150.9 115.2,150.3L157,88.8C157.4,88.2 157.1,87.8 156.4,87.8M94.7,34.5C95.6,35 96.5,35.5 97,35.5C97.5,35.5 98.2,35.1 99.2,34.5C119.2,21.9 102.6,6.5 97,0.5C91.3,6.5 74.7,21.9 94.7,34.5M73.7,80.5C74.591,80.5 75.473,80.331 76.3,80C76.7,79.7 77.3,79 77.8,77.8C88,54.6 63.6,50.5 55,48.6C53.5,57.2 48,81 73.6,80.6M40.8,75.6C41.568,75.165 42.247,74.588 42.8,73.9C43.1,73.4 43.2,72.6 43.1,71.3C41.3,46 17.7,53.6 9.1,55.9C11.9,64.2 18.3,87.9 40.8,75.6M44.8,117.9C45.3,116.9 45.6,115.9 45.5,115.4C45.5,114.9 45,114.1 44.2,113.1C27.4,93.9 13.1,113.8 7.6,120.7C14.8,125.7 34.2,141 44.9,117.9M97,41C92.6,46 79.6,59 95.3,69.5C96,70 96.7,70.3 97.1,70.3C97.4,70.3 98.1,70.1 98.8,69.5C114.5,58.9 101.5,45.9 97.1,41" style="fill:white;fill-rule:nonzero;"/>
    <path d="M53.9,128.6C53.6,128.5 53.1,128.3 52.3,128.3C36.6,128.3 39.3,143.1 39.9,148.5C45.2,147.2 60.3,144.5 54.7,130L53.9,128.6ZM95.2,103.2L97,104C97.3,104 98,103.7 98.7,103.2C114.4,92.6 101.4,79.6 97,74.7C92.5,79.6 79.5,92.6 95.2,103.2M29.2,95.2C29.7,94.6 30.1,94 30.2,93.6C30.3,93.2 30,92.6 29.5,91.8C20.2,75.5 5.9,87 0.5,91C5.1,95.8 17.1,109.7 29.2,95.3M45.2,50.5C46.2,50.5 46.9,50.3 47.2,50.1C47.5,49.9 47.9,49.4 48.2,48.5C55,30.9 36.7,27.5 30.2,26C29.5,32.5 26.3,50.5 45.2,50.4M71,44.8C71.9,44.9 72.8,45 73.1,44.8C73.5,44.8 74.1,44.2 74.7,43.4C86.7,26.1 67.9,17.6 61.3,14.2C58.7,21.1 50.3,39.8 71,44.8M117.7,80C118.2,80.3 119.2,80.4 120.4,80.5C146.1,81 140.5,57.2 139,48.6C130.4,50.6 106,54.6 116.2,77.8C116.8,79 117.3,79.8 117.7,80M150.7,71.2C150.7,72.5 150.8,73.3 151,73.8C151.2,74.3 152.1,74.8 153.1,75.5C175.6,87.7 182,64 184.7,55.8C176.2,53.5 152.7,45.9 150.7,71.2M149.7,113C148.9,114 148.4,114.8 148.4,115.3C148.4,115.8 148.6,116.8 149,117.8C159.7,140.8 179,125.6 186.3,120.6C180.8,113.7 166.5,93.8 149.7,113M141.7,128.3C140.9,128.3 140.3,128.5 140.1,128.6C139.9,128.7 139.5,129.4 139.3,130C133.7,144.4 148.8,147.2 154.1,148.5C154.7,143.1 157.3,128.3 141.7,128.3M164.5,91.8C164,92.6 163.9,93.2 163.9,93.6C163.9,94 164.3,94.6 164.9,95.3C176.9,109.7 188.9,95.8 193.5,91C188.1,87.1 173.8,75.5 164.5,91.8M146.8,50C147.1,50.2 147.8,50.3 148.8,50.4C167.7,50.4 164.5,32.4 163.8,26C157.3,27.5 139.1,30.9 145.8,48.4C146.1,49.3 146.5,49.8 146.8,50M120.8,44.9C121.2,45 122.1,44.9 123,44.8C143.7,39.8 135.3,21.1 132.7,14.2C126.1,17.6 107.2,26.2 119.3,43.4C119.9,44.2 120.5,44.7 120.9,44.9" style="fill:white;fill-rule:nonzero;"/>
</svg>
